<?xml version="1.0" standalone="no"?>
<!DOCTYPE svg PUBLIC "-//W3C//DTD SVG 20010904//EN"
 "http://www.w3.org/TR/2001/REC-SVG-20010904/DTD/svg10.dtd">
<svg version="1.0" xmlns="http://www.w3.org/2000/svg"
 width="260.000000pt" height="260.000000pt" viewBox="0 0 260.000000 260.000000"
 preserveAspectRatio="xMidYMid meet">
<metadata>
Created by potrace 1.11, written by Peter Selinger 2001-2013
</metadata>
<g transform="translate(0.000000,260.000000) scale(0.100000,-0.100000)"
fill="#000000" stroke="none">
<path d="M1090 2579 c-151 -33 -192 -47 -321 -111 -338 -168 -591 -484 -684
-853 -25 -99 -26 -112 -30 -290 -5 -186 8 -276 61 -433 132 -397 441 -702 842
-831 50 -17 113 -33 140 -37 26 -3 50 -8 54 -11 4 -2 56 -7 116 -10 89 -4 114
-3 140 11 65 34 83 129 35 183 -34 37 -45 40 -152 48 -73 5 -118 12 -196 29
-153 33 -343 138 -476 263 -139 131 -243 308 -294 499 -33 123 -43 335 -20
444 2 14 7 39 11 55 3 17 17 64 31 105 143 424 528 708 984 724 93 4 139 46
139 126 0 35 -6 48 -34 76 l-35 35 -113 -2 c-67 -1 -148 -9 -198 -20z"/>
<path d="M1251 2109 c-132 -34 -252 -96 -338 -176 l-53 -48 245 -243 c184
-183 245 -238 246 -223 1 12 1 44 1 71 0 541 -2 637 -17 637 -8 0 -45 -8 -84
-18z"/>
<path d="M1705 2122 c-11 -7 -15 -231 -5 -233 3 -1 14 -3 25 -4 114 -13 175
-32 257 -79 191 -108 299 -300 293 -519 -5 -158 -58 -280 -170 -392 -111 -111
-238 -167 -395 -174 -13 -1 -15 -20 -14 -119 2 -139 1 -132 17 -127 6 2 37 6
68 9 351 30 666 319 727 666 8 46 6 287 -2 324 -68 294 -289 533 -569 617 -39
12 -83 23 -97 25 -73 10 -126 13 -135 6z"/>
<path d="M748 1745 c-27 -41 -48 -79 -48 -85 0 -6 -7 -21 -15 -33 -18 -29 -52
-160 -60 -233 -6 -50 -5 -54 14 -55 12 0 158 -1 326 -1 168 0 308 1 312 1 8 1
-468 481 -477 481 -3 0 -26 -34 -52 -75z"/>
<path d="M626 1196 c3 -28 15 -82 26 -121 21 -75 96 -235 110 -235 4 0 8 -5 8
-12 0 -6 10 -22 21 -35 l22 -22 233 234 c129 128 234 236 234 239 0 2 -149 4
-330 4 l-330 0 6 -52z"/>
<path d="M1107 942 l-236 -237 27 -24 c112 -99 327 -199 425 -197 l29 1 -2
345 c0 189 -2 345 -3 347 -2 1 -109 -104 -240 -235z"/>
</g>
</svg>
